<?xml version="1.0" encoding="utf-8"?>
<svg width="25px" height="36px" viewbox="0 0 25 36" version="1.1" xmlns:xlink="http://www.w3.org/1999/xlink" xmlns="http://www.w3.org/2000/svg">
  <g id="Group-2">
    <path d="M20.1898 0C21.6055 0 22.7536 1.07406 22.7536 2.39845L22.7536 32.379C22.7536 33.7034 21.6055 34.7775 20.1898 34.7775L2.56378 34.7775C1.1481 34.7775 0 33.7034 0 32.379L0 2.39845C0 1.07406 1.1481 0 2.56378 0L20.1898 0Z" transform="translate(0.6411133 0.5996094)" id="Path" fill="#D1E7FF" stroke="none" />
    <path d="M10.1221 0C10.7358 0 11.2502 0.4324 11.3167 1.0028L12.174 8.3691C12.2517 9.0339 11.6949 9.6148 10.9794 9.6148L1.20181 9.6148C0.486361 9.6148 -0.070459 9.0339 0.00725099 8.3691L0.864521 1.0028C0.931011 0.4324 1.44537 0 2.05907 0L10.1221 0Z" transform="translate(5.927002 13.470245)" id="Path" fill="#B9DCFF" stroke="none" />
    <path d="M20.3109 0.00289555C22.3728 0.0926056 22.2634 2.99833 20.1993 2.99833L11.8575 2.99833C7.07869 2.99833 3.20473 6.62246 3.20473 11.0931L3.20473 34.7778L2.56379 34.7778C1.14786 34.7778 0 33.704 0 32.3793L0 2.39872C0 1.0741 1.14786 0.000265555 2.56379 0.000265555C2.6798 0.000265555 20.2169 -0.00123444 20.3109 0.00289555Z" transform="translate(0.6411133 0.59936523)" id="Path" fill="#E8F3FF" stroke="none" />
    <path d="M22.7536 0L22.7536 2.8481C22.7536 4.1725 21.6055 5.2466 20.1898 5.2466L2.56378 5.2466C1.1481 5.2466 0 4.1725 0 2.8481L0 0L22.7536 0Z" transform="translate(0.6411133 30.130646)" id="Path" fill="#B9DCFF" stroke="none" />
    <path d="M3.20472 0L3.20472 2.857C3.20472 4.8103 0 4.9101 0 2.8481L0 0L3.20472 0Z" transform="translate(0.6411133 30.130646)" id="Path" fill="#D1E7FF" stroke="none" />
    <path d="M10.1224 2.2485C6.2401 2.2485 3.06665 4.9827 2.65693 8.505C2.58346 9.1364 2.01342 9.6148 1.33441 9.6148L1.20182 9.6148C0.486361 9.6148 -0.070459 9.0339 0.00725099 8.3691L0.864521 1.0028C0.931021 0.4324 1.44538 0 2.05909 0L10.1222 0C10.7354 0 11.2504 0.432 11.3167 1.0024C11.3943 1.6689 10.8365 2.2485 10.1224 2.2485Z" transform="translate(5.927002 13.470245)" id="Path" fill="#D1E7FF" stroke="none" />
    <path d="M20.8307 0L3.20472 0C1.43764 0 0 1.34493 0 2.99806L0 32.9786C0 34.6318 1.43764 35.9767 3.20472 35.9767L20.8307 35.9767C22.5978 35.9767 24.0354 34.6318 24.0354 32.9786L24.0354 2.99806C24.0354 1.34493 22.5978 0 20.8307 0ZM20.8307 34.7775L3.20472 34.7775C2.14452 34.7775 1.28189 33.9706 1.28189 32.9786L1.28189 2.99806C1.28189 2.00615 2.14452 1.19923 3.20472 1.19923L20.8307 1.19923C21.8909 1.19923 22.7535 2.00615 22.7535 2.99806L22.7535 29.5309L4.40649 29.5309C4.05253 29.5309 3.76555 29.7993 3.76555 30.1305C3.76555 30.4616 4.05253 30.7301 4.40649 30.7301L22.7535 30.7301L22.7535 32.9786C22.7535 33.9706 21.8909 34.7775 20.8307 34.7775ZM13.4598 32.6039C13.4598 32.935 13.1728 33.2035 12.8189 33.2035L11.2165 33.2035C10.8626 33.2035 10.5756 32.935 10.5756 32.6039C10.5756 32.2727 10.8626 32.0043 11.2165 32.0043L12.8189 32.0043C13.1728 32.0043 13.4598 32.2727 13.4598 32.6039ZM7.1289 23.6847L16.9065 23.6847C18.0027 23.6847 18.857 22.7931 18.7384 21.7742L17.8812 14.4083C17.7792 13.5319 16.9916 12.871 16.0493 12.871L15.456 12.871L15.456 11.7609C15.4559 9.98734 13.9135 8.54448 12.0177 8.54448C10.1219 8.54448 8.57952 9.98734 8.57952 11.7609L8.57952 12.8709L7.98616 12.8709C7.04381 12.8709 6.25633 13.5318 6.15426 14.4083L5.29708 21.7742C5.17843 22.7936 6.03337 23.6847 7.1289 23.6847ZM6.57136 21.904L7.42854 14.5381C7.45963 14.2713 7.69926 14.0702 7.98608 14.0702L8.57944 14.0702L8.57944 15.0058C8.57944 15.3369 8.86642 15.6054 9.22038 15.6054C9.57434 15.6054 9.86132 15.3369 9.86132 15.0058L9.86132 11.7609C9.86132 10.6486 10.8286 9.74374 12.0176 9.74374C13.2067 9.74374 14.1739 10.6486 14.1739 11.7609L14.1739 12.871L11.4015 12.871C11.0476 12.871 10.7606 13.1395 10.7606 13.4706C10.7606 13.8018 11.0476 14.0702 11.4015 14.0702L14.1739 14.0702L14.1739 15.0058C14.1739 15.3369 14.4609 15.6054 14.8149 15.6054C15.1688 15.6054 15.4558 15.3369 15.4558 15.0058L15.4558 14.0702L16.0492 14.0702C16.336 14.0702 16.5756 14.2714 16.6067 14.5381L17.4639 21.904C17.4999 22.214 17.2418 22.4854 16.9063 22.4854L7.1289 22.4854C6.79497 22.4854 6.53522 22.2152 6.57136 21.904Z" id="Shape" fill="#007FFC" stroke="none" />
  </g>
</svg>