<?xml version="1.0" encoding="utf-8"?>
<svg width="39px" height="35px" viewbox="0 0 39 35" version="1.1" xmlns:xlink="http://www.w3.org/1999/xlink" xmlns="http://www.w3.org/2000/svg">
  <g id="Group-1">
    <path d="M32.3868 15.3658C33.1552 16.6107 32.2338 18.1743 30.6979 18.2297C25.0896 18.4351 19.3713 19.7454 13.98 22.3252L12.1973 23.2876C12.1973 23.2952 12.1727 23.2482 16.5126 30.3092C16.9108 30.9553 16.6744 31.7806 15.9846 32.1538L14.5785 32.9131C13.8887 33.2856 13.0057 33.0645 12.6075 32.4184L8.27863 25.4043L7.57598 25.7843C6.19551 26.5293 4.43046 26.0871 3.63326 24.7957L0.386804 19.5354C-0.409593 18.244 0.0631153 16.5928 1.44358 15.847L7.84758 12.3879C12.7417 9.42624 16.889 5.50465 19.9978 0.891573C20.8175 -0.324927 22.7251 -0.289697 23.4935 0.955283L26.2712 5.45698C27.8672 4.59501 29.9087 5.10694 30.8301 6.60002C31.7514 8.09309 31.2042 10.0021 29.6082 10.8641L32.3868 15.3658Z" transform="translate(0.64001465 1.0402832)" id="Path" fill="#D1E7FF" stroke="none" />
    <path d="M4.5589 1.56166C5.4803 3.05475 4.933 4.96381 3.337 5.82581L0 0.418611C1.596 -0.443359 3.6375 0.0685814 4.5589 1.56166Z" transform="translate(26.911072 6.0786133)" id="Path" fill="#D1E7FF" stroke="none" />
    <path d="M23.4935 0.95525C23.8768 1.57691 23.8522 2.3481 23.428 2.94608C20.0059 7.76985 15.4192 12.1286 9.80968 15.5239L2.30647 19.5766C1.7913 19.8554 1.38349 20.2414 1.09826 20.6874L0.386804 19.5354C-0.409593 18.2439 0.0631153 16.5927 1.44358 15.8469L7.84758 12.3878C12.7417 9.42614 16.889 5.50461 19.9978 0.89154C20.8174 -0.32495 22.7251 -0.28965 23.4935 0.95525Z" transform="translate(0.64001465 1.0402832)" id="Path" fill="#E8F3FF" stroke="none" />
    <path d="M7.84758 0L13.98 9.9373C12.7511 10.6007 8.80309 12.7327 7.57597 13.3964C6.1955 14.1414 4.43046 13.6992 3.63326 12.4077L0.386804 7.1475C-0.409593 5.8561 0.0631153 4.2049 1.44358 3.4591L7.84758 0Z" transform="translate(0.64001465 13.428223)" id="Path" fill="#B9DCFF" stroke="none" />
    <path d="M9.78971 3.1473C1.64109 7.5481 2.1811 7.2419 1.91822 7.4333C1.42316 7.7936 0.700639 7.6556 0.386799 7.1475C-0.409591 5.856 0.0631181 4.2048 1.44359 3.4591L7.84759 0L9.78971 3.1473Z" transform="translate(0.6398926 13.428223)" id="Path" fill="#D1E7FF" stroke="none" />
    <path d="M5.08602 1.8985C2.80612 3.1335 4.48352 2.2247 1.17132 4.0129L0 2.1159L3.91872 0L5.08602 1.8985Z" transform="translate(8.918579 24.328827)" id="Path" fill="#B9DCFF" stroke="none" />
    <path d="M4.3594 4.94902C4.095 5.28862 3.7513 5.58312 3.337 5.80652L0 0.39949C0.4143 0.17538 0.8589 0.04497 1.3052 0C1.4731 0.27222 4.2128 4.71172 4.3594 4.94902Z" transform="translate(26.911072 6.0979004)" id="Path" fill="#B9DCFF" stroke="none" />
    <path d="M31.0977 12.0812C33.5992 10.1698 32.7351 6.38976 29.6094 5.60635C28.7927 5.40166 27.9472 5.44423 27.1721 5.72043L24.6885 1.69612C23.6779 0.058468 21.1713 0.01507 20.0952 1.6118C17.0404 6.14452 12.9708 9.99962 8.13922 12.9251C7.86409 13.0914 7.7621 13.435 7.9249 13.7146C7.95102 13.7594 12.0649 20.4244 12.0921 20.4686C12.269 20.7552 12.6608 20.8537 12.9677 20.6881C13.2742 20.5225 13.3792 20.1557 13.2023 19.869L9.34447 13.6179C13.9515 10.7367 18.0317 6.92223 21.1796 2.25137C21.7426 1.41587 23.0513 1.4418 23.5783 2.29574L32.4713 16.7056C32.999 17.5606 32.3664 18.6328 31.313 18.6711C25.4036 18.8865 19.6179 20.3005 14.3281 22.8316C14.3056 22.8423 8.30812 26.0821 7.8951 26.3052C6.82301 26.8843 5.44735 26.5394 4.8285 25.5365L1.58195 20.2757C0.963022 19.2729 1.33165 17.9859 2.40366 17.4069L6.31104 15.2964C6.61758 15.1309 6.72262 14.7641 6.54563 14.4774C6.36865 14.1905 5.97654 14.0923 5.67008 14.2579L1.7627 16.3683C0.0785757 17.2779 -0.500533 19.2998 0.471805 20.8754L3.71843 26.136C4.69085 27.7117 6.85209 28.2533 8.53622 27.3437L8.68404 27.2638L12.6924 33.7588C13.2681 34.6917 14.5412 35.0112 15.539 34.4724L16.9449 33.713C17.9424 33.1743 18.2836 31.9832 17.7077 31.05L14.8668 26.4469C14.6898 26.1601 14.2978 26.0618 13.9913 26.2274C13.6847 26.393 13.5797 26.7597 13.7567 27.0465L16.5975 31.6496C16.8191 32.0087 16.6879 32.4671 16.3039 32.6744L14.8981 33.4338C14.5142 33.6411 14.0242 33.5182 13.8026 33.1591L9.79427 26.6642L14.9264 23.8922C19.9484 21.4918 25.5353 20.0818 31.363 19.8694C33.3827 19.7957 34.5907 17.7408 33.5815 16.1059L31.0977 12.0812ZM30.9147 7.9398C31.5474 8.96516 31.3201 10.2375 30.4442 11.0222L27.8255 6.77892C28.9735 6.46389 30.2717 6.89787 30.9147 7.9398ZM37.1837 5.27394L35.5253 6.1697C35.2186 6.33535 34.8267 6.23694 34.6498 5.95024C34.4727 5.66347 34.5778 5.29672 34.8844 5.13115L36.5428 4.23538C36.8496 4.06974 37.2414 4.16815 37.4183 4.45485C37.5953 4.74162 37.4903 5.10836 37.1837 5.27394ZM30.0516 1.85637L30.4561 0.444552C30.5477 0.124652 30.899 -0.065055 31.2411 0.020542C31.5831 0.106289 31.786 0.435108 31.6943 0.754934L31.2899 2.16675C31.1984 2.48583 30.8478 2.67651 30.5048 2.59076C30.1629 2.50501 29.96 2.17627 30.0516 1.85637ZM38.4347 11.6766C38.3579 11.9445 38.099 12.1212 37.8159 12.1212C37.6999 12.1212 37.781 12.1336 36.1404 11.7223C35.7985 11.6365 35.5955 11.3078 35.6872 10.9879C35.7788 10.668 36.1303 10.4784 36.4722 10.5639L37.9814 10.9422C38.3233 11.0279 38.5263 11.3567 38.4347 11.6766Z" id="Shape" fill="#007FFC" stroke="none" />
  </g>
</svg>