<?xml version="1.0" encoding="utf-8"?>
<svg width="38px" height="38px" viewbox="0 0 38 38" version="1.1" xmlns:xlink="http://www.w3.org/1999/xlink" xmlns="http://www.w3.org/2000/svg">
  <g id="Group-14">
    <path d="M4.999 0L33.001 0Q33.1237 0 33.2463 0.00602151Q33.3689 0.012043 33.491 0.0240715Q33.6131 0.0361001 33.7345 0.0541066Q33.8559 0.0721132 33.9763 0.0960544Q34.0966 0.119996 34.2157 0.149814Q34.3347 0.179632 34.4521 0.215255Q34.5696 0.250879 34.6851 0.292221Q34.8007 0.333564 34.914 0.380526Q35.0274 0.427489 35.1383 0.479957Q35.2493 0.532426 35.3575 0.590276Q35.4657 0.648125 35.571 0.711215Q35.6763 0.774305 35.7783 0.842483Q35.8803 0.910662 35.9789 0.983765Q36.0775 1.05687 36.1723 1.13472Q36.2672 1.21257 36.3581 1.29499Q36.449 1.3774 36.5358 1.46417Q36.6226 1.55095 36.705 1.64188Q36.7874 1.73281 36.8653 1.82767Q36.9431 1.92253 37.0162 2.0211Q37.0893 2.11967 37.1575 2.2217Q37.2257 2.32374 37.2888 2.429Q37.3519 2.53426 37.4097 2.64249Q37.4676 2.75072 37.52 2.86165Q37.5725 2.97259 37.6195 3.08597Q37.6664 3.19934 37.7078 3.31489Q37.7491 3.43043 37.7847 3.54787Q37.8204 3.6653 37.8502 3.78434Q37.88 3.90338 37.9039 4.02374Q37.9279 4.1441 37.9459 4.26549Q37.9639 4.38688 37.9759 4.50901Q37.988 4.63114 37.994 4.75371Q38 4.87628 38 4.999L38 33.001Q38 33.1237 37.994 33.2463Q37.988 33.3689 37.9759 33.491Q37.9639 33.6131 37.9459 33.7345Q37.9279 33.8559 37.9039 33.9763Q37.88 34.0966 37.8502 34.2157Q37.8204 34.3347 37.7847 34.4521Q37.7491 34.5696 37.7078 34.6851Q37.6664 34.8007 37.6195 34.914Q37.5725 35.0274 37.52 35.1383Q37.4676 35.2493 37.4097 35.3575Q37.3519 35.4657 37.2888 35.571Q37.2257 35.6763 37.1575 35.7783Q37.0893 35.8803 37.0162 35.9789Q36.9431 36.0775 36.8653 36.1723Q36.7874 36.2672 36.705 36.3581Q36.6226 36.449 36.5358 36.5358Q36.449 36.6226 36.3581 36.705Q36.2672 36.7874 36.1723 36.8653Q36.0775 36.9431 35.9789 37.0162Q35.8803 37.0893 35.7783 37.1575Q35.6763 37.2257 35.571 37.2888Q35.4657 37.3519 35.3575 37.4097Q35.2493 37.4676 35.1383 37.52Q35.0274 37.5725 34.914 37.6195Q34.8007 37.6664 34.6851 37.7078Q34.5696 37.7491 34.4521 37.7847Q34.3347 37.8204 34.2157 37.8502Q34.0966 37.88 33.9763 37.9039Q33.8559 37.9279 33.7345 37.9459Q33.6131 37.9639 33.491 37.9759Q33.3689 37.988 33.2463 37.994Q33.1237 38 33.001 38L4.999 38Q4.87628 38 4.75371 37.994Q4.63114 37.988 4.50901 37.9759Q4.38688 37.9639 4.26549 37.9459Q4.1441 37.9279 4.02374 37.9039Q3.90338 37.88 3.78434 37.8502Q3.6653 37.8204 3.54787 37.7847Q3.43043 37.7491 3.31489 37.7078Q3.19934 37.6664 3.08597 37.6195Q2.97259 37.5725 2.86165 37.52Q2.75072 37.4676 2.64249 37.4097Q2.53426 37.3519 2.429 37.2888Q2.32374 37.2257 2.2217 37.1575Q2.11967 37.0893 2.0211 37.0162Q1.92253 36.9431 1.82767 36.8653Q1.73281 36.7874 1.64188 36.705Q1.55095 36.6226 1.46417 36.5358Q1.3774 36.449 1.29499 36.3581Q1.21257 36.2672 1.13472 36.1723Q1.05687 36.0775 0.983765 35.9789Q0.910662 35.8803 0.842483 35.7783Q0.774305 35.6763 0.711215 35.571Q0.648125 35.4657 0.590276 35.3575Q0.532426 35.2493 0.479957 35.1383Q0.427489 35.0274 0.380526 34.914Q0.333564 34.8007 0.292221 34.6851Q0.250879 34.5696 0.215255 34.4521Q0.179632 34.3347 0.149814 34.2157Q0.119996 34.0966 0.0960544 33.9763Q0.0721132 33.8559 0.0541066 33.7345Q0.0361001 33.6131 0.0240715 33.491Q0.012043 33.3689 0.00602151 33.2463Q0 33.1237 0 33.001L0 4.999Q0 4.87628 0.00602151 4.75371Q0.012043 4.63114 0.0240715 4.50901Q0.0361001 4.38688 0.0541066 4.26549Q0.0721132 4.1441 0.0960544 4.02374Q0.119996 3.90338 0.149814 3.78434Q0.179632 3.6653 0.215255 3.54787Q0.250879 3.43043 0.292221 3.31489Q0.333564 3.19934 0.380526 3.08597Q0.427489 2.97259 0.479957 2.86165Q0.532426 2.75072 0.590276 2.64249Q0.648125 2.53426 0.711215 2.429Q0.774305 2.32374 0.842483 2.2217Q0.910662 2.11967 0.983765 2.0211Q1.05687 1.92253 1.13472 1.82767Q1.21257 1.73281 1.29499 1.64188Q1.3774 1.55095 1.46417 1.46417Q1.55095 1.3774 1.64188 1.29499Q1.73281 1.21257 1.82767 1.13472Q1.92253 1.05687 2.0211 0.983765Q2.11967 0.910662 2.2217 0.842483Q2.32374 0.774305 2.429 0.711215Q2.53426 0.648125 2.64249 0.590276Q2.75072 0.532426 2.86165 0.479957Q2.97259 0.427489 3.08597 0.380526Q3.19934 0.333564 3.31489 0.292221Q3.43043 0.250879 3.54787 0.215255Q3.6653 0.179632 3.78434 0.149814Q3.90338 0.119996 4.02374 0.0960544Q4.1441 0.0721132 4.26549 0.0541066Q4.38688 0.0361001 4.50901 0.0240715Q4.63114 0.012043 4.75371 0.00602151Q4.87628 0 4.999 0Z" id="Rectangle" fill="#EFEEF3" stroke="none" />
    <path d="M9.6875 0C4.3458 0 0 4.3458 0 9.6875C0 15.0292 4.3458 19.375 9.6875 19.375C15.0292 19.375 19.375 15.0292 19.375 9.6875C19.375 4.3458 15.0292 0 9.6875 0ZM16.0926 4.4674C17.245 5.8755 17.9429 7.6689 17.9611 9.6219C17.6883 9.5642 14.9526 9.0093 12.1993 9.3556C11.9746 8.8071 11.7626 8.3246 11.4721 7.73C14.5315 6.4809 15.9181 4.7034 16.0926 4.4674ZM15.1727 3.5105C15.0239 3.7225 13.7783 5.3967 10.8359 6.4996C9.48 4.0083 7.9771 1.9618 7.7484 1.6555C10.3725 1.023 13.1377 1.7051 15.1727 3.5105ZM6.1696 2.2117C6.3877 2.5109 7.8664 4.56 9.2374 6.9972C5.3668 8.0251 1.9577 8.0103 1.5877 8.0054C2.1242 5.4377 3.8546 3.3036 6.1696 2.2117ZM1.4129 9.7001C1.4129 9.6155 1.4146 9.5313 1.4171 9.4473C1.7791 9.4547 5.789 9.5064 9.9213 8.2697C10.1581 8.7333 10.3844 9.2039 10.5921 9.6739C7.6 10.5167 4.8814 12.9367 3.5401 15.2328C2.2185 13.7658 1.4129 11.8254 1.4129 9.7001ZM4.6085 16.228C5.4728 14.4611 7.8186 12.1802 11.1545 11.0422C12.3162 14.0611 12.7967 16.5911 12.9197 17.3171C10.2591 18.4504 7.0598 18.1395 4.6085 16.228ZM14.3108 16.5596C14.226 16.0562 13.7856 13.6339 12.7033 10.6598C15.2963 10.2448 17.5744 10.9242 17.8575 11.0136C17.4887 13.3159 16.1671 15.3043 14.3108 16.5596Z" transform="translate(9 9)" id="Shape" fill="#0D0D0D" stroke="none" />
  </g>
</svg>