<?xml version="1.0" encoding="utf-8"?>
<svg width="38px" height="38px" viewbox="0 0 38 38" version="1.1" xmlns:xlink="http://www.w3.org/1999/xlink" xmlns="http://www.w3.org/2000/svg">
  <g id="Group-13">
    <path d="M4.999 0L33.001 0Q33.1237 0 33.2463 0.00602151Q33.3689 0.012043 33.491 0.0240715Q33.6131 0.0361001 33.7345 0.0541066Q33.8559 0.0721132 33.9763 0.0960544Q34.0966 0.119996 34.2157 0.149814Q34.3347 0.179632 34.4521 0.215255Q34.5696 0.250879 34.6851 0.292221Q34.8007 0.333564 34.914 0.380526Q35.0274 0.427489 35.1383 0.479957Q35.2493 0.532426 35.3575 0.590276Q35.4657 0.648125 35.571 0.711215Q35.6763 0.774305 35.7783 0.842483Q35.8803 0.910662 35.9789 0.983765Q36.0775 1.05687 36.1723 1.13472Q36.2672 1.21257 36.3581 1.29499Q36.449 1.3774 36.5358 1.46417Q36.6226 1.55095 36.705 1.64188Q36.7874 1.73281 36.8653 1.82767Q36.9431 1.92253 37.0162 2.0211Q37.0893 2.11967 37.1575 2.2217Q37.2257 2.32374 37.2888 2.429Q37.3519 2.53426 37.4097 2.64249Q37.4676 2.75072 37.52 2.86165Q37.5725 2.97259 37.6195 3.08597Q37.6664 3.19934 37.7078 3.31489Q37.7491 3.43043 37.7847 3.54787Q37.8204 3.6653 37.8502 3.78434Q37.88 3.90338 37.9039 4.02374Q37.9279 4.1441 37.9459 4.26549Q37.9639 4.38688 37.9759 4.50901Q37.988 4.63114 37.994 4.75371Q38 4.87628 38 4.999L38 33.001Q38 33.1237 37.994 33.2463Q37.988 33.3689 37.9759 33.491Q37.9639 33.6131 37.9459 33.7345Q37.9279 33.8559 37.9039 33.9763Q37.88 34.0966 37.8502 34.2157Q37.8204 34.3347 37.7847 34.4521Q37.7491 34.5696 37.7078 34.6851Q37.6664 34.8007 37.6195 34.914Q37.5725 35.0274 37.52 35.1383Q37.4676 35.2493 37.4097 35.3575Q37.3519 35.4657 37.2888 35.571Q37.2257 35.6763 37.1575 35.7783Q37.0893 35.8803 37.0162 35.9789Q36.9431 36.0775 36.8653 36.1723Q36.7874 36.2672 36.705 36.3581Q36.6226 36.449 36.5358 36.5358Q36.449 36.6226 36.3581 36.705Q36.2672 36.7874 36.1723 36.8653Q36.0775 36.9431 35.9789 37.0162Q35.8803 37.0893 35.7783 37.1575Q35.6763 37.2257 35.571 37.2888Q35.4657 37.3519 35.3575 37.4097Q35.2493 37.4676 35.1383 37.52Q35.0274 37.5725 34.914 37.6195Q34.8007 37.6664 34.6851 37.7078Q34.5696 37.7491 34.4521 37.7847Q34.3347 37.8204 34.2157 37.8502Q34.0966 37.88 33.9763 37.9039Q33.8559 37.9279 33.7345 37.9459Q33.6131 37.9639 33.491 37.9759Q33.3689 37.988 33.2463 37.994Q33.1237 38 33.001 38L4.999 38Q4.87628 38 4.75371 37.994Q4.63114 37.988 4.50901 37.9759Q4.38688 37.9639 4.26549 37.9459Q4.1441 37.9279 4.02374 37.9039Q3.90338 37.88 3.78434 37.8502Q3.6653 37.8204 3.54787 37.7847Q3.43043 37.7491 3.31489 37.7078Q3.19934 37.6664 3.08597 37.6195Q2.97259 37.5725 2.86165 37.52Q2.75072 37.4676 2.64249 37.4097Q2.53426 37.3519 2.429 37.2888Q2.32374 37.2257 2.2217 37.1575Q2.11967 37.0893 2.0211 37.0162Q1.92253 36.9431 1.82767 36.8653Q1.73281 36.7874 1.64188 36.705Q1.55095 36.6226 1.46417 36.5358Q1.3774 36.449 1.29499 36.3581Q1.21257 36.2672 1.13472 36.1723Q1.05687 36.0775 0.983765 35.9789Q0.910662 35.8803 0.842483 35.7783Q0.774305 35.6763 0.711215 35.571Q0.648125 35.4657 0.590276 35.3575Q0.532426 35.2493 0.479957 35.1383Q0.427489 35.0274 0.380526 34.914Q0.333564 34.8007 0.292221 34.6851Q0.250879 34.5696 0.215255 34.4521Q0.179632 34.3347 0.149814 34.2157Q0.119996 34.0966 0.0960544 33.9763Q0.0721132 33.8559 0.0541066 33.7345Q0.0361001 33.6131 0.0240715 33.491Q0.012043 33.3689 0.00602151 33.2463Q0 33.1237 0 33.001L0 4.999Q0 4.87628 0.00602151 4.75371Q0.012043 4.63114 0.0240715 4.50901Q0.0361001 4.38688 0.0541066 4.26549Q0.0721132 4.1441 0.0960544 4.02374Q0.119996 3.90338 0.149814 3.78434Q0.179632 3.6653 0.215255 3.54787Q0.250879 3.43043 0.292221 3.31489Q0.333564 3.19934 0.380526 3.08597Q0.427489 2.97259 0.479957 2.86165Q0.532426 2.75072 0.590276 2.64249Q0.648125 2.53426 0.711215 2.429Q0.774305 2.32374 0.842483 2.2217Q0.910662 2.11967 0.983765 2.0211Q1.05687 1.92253 1.13472 1.82767Q1.21257 1.73281 1.29499 1.64188Q1.3774 1.55095 1.46417 1.46417Q1.55095 1.3774 1.64188 1.29499Q1.73281 1.21257 1.82767 1.13472Q1.92253 1.05687 2.0211 0.983765Q2.11967 0.910662 2.2217 0.842483Q2.32374 0.774305 2.429 0.711215Q2.53426 0.648125 2.64249 0.590276Q2.75072 0.532426 2.86165 0.479957Q2.97259 0.427489 3.08597 0.380526Q3.19934 0.333564 3.31489 0.292221Q3.43043 0.250879 3.54787 0.215255Q3.6653 0.179632 3.78434 0.149814Q3.90338 0.119996 4.02374 0.0960544Q4.1441 0.0721132 4.26549 0.0541066Q4.38688 0.0361001 4.50901 0.0240715Q4.63114 0.012043 4.75371 0.00602151Q4.87628 0 4.999 0Z" id="Rectangle" fill="#EFEEF3" stroke="none" />
    <path d="M6.6895 15.7016C6.6895 15.7823 6.5968 15.8468 6.4798 15.8468C6.3468 15.8589 6.254 15.7944 6.254 15.7016C6.254 15.621 6.3468 15.5565 6.4637 15.5565C6.5847 15.5444 6.6895 15.6089 6.6895 15.7016ZM5.4355 15.5202C5.4073 15.6008 5.4879 15.6935 5.6089 15.7177C5.7137 15.7581 5.8347 15.7177 5.8589 15.6371C5.8831 15.5565 5.8065 15.4637 5.6855 15.4274C5.5806 15.3992 5.4637 15.4395 5.4355 15.5202ZM7.2177 15.4516C7.1008 15.4798 7.0202 15.5565 7.0323 15.6492C7.0444 15.7298 7.1492 15.7823 7.2702 15.754C7.3871 15.7258 7.4677 15.6492 7.4556 15.5685C7.4435 15.4919 7.3347 15.4395 7.2177 15.4516ZM9.871 0C4.2782 0 0 4.246 0 9.8387C0 14.3105 2.8145 18.1371 6.8347 19.4839C7.3508 19.5766 7.5323 19.2581 7.5323 18.996C7.5323 18.746 7.5202 17.3669 7.5202 16.5202C7.5202 16.5202 4.6976 17.125 4.1048 15.3185C4.1048 15.3185 3.6452 14.1452 2.9839 13.8427C2.9839 13.8427 2.0605 13.2097 3.0484 13.2218C3.0484 13.2218 4.0524 13.3024 4.6048 14.2621C5.4879 15.8185 6.9677 15.371 7.5444 15.1048C7.6371 14.4597 7.8992 14.0121 8.1895 13.746C5.9355 13.496 3.6613 13.1694 3.6613 9.2903C3.6613 8.1815 3.9677 7.625 4.6129 6.9153C4.5081 6.6532 4.1653 5.5726 4.7177 4.1774C5.5605 3.9153 7.5 5.2661 7.5 5.2661C8.3065 5.0403 9.1734 4.9234 10.0323 4.9234C10.8911 4.9234 11.7581 5.0403 12.5645 5.2661C12.5645 5.2661 14.504 3.9113 15.3468 4.1774C15.8992 5.5766 15.5565 6.6532 15.4516 6.9153C16.0968 7.629 16.4919 8.1855 16.4919 9.2903C16.4919 13.1815 14.1169 13.4919 11.8629 13.746C12.2339 14.0645 12.5484 14.6694 12.5484 15.6169C12.5484 16.9758 12.5363 18.6573 12.5363 18.9879C12.5363 19.25 12.7218 19.5685 13.2339 19.4758C17.2661 18.1371 20 14.3105 20 9.8387C20 4.246 15.4637 0 9.871 0ZM3.9194 13.9073C3.8669 13.9476 3.879 14.0403 3.9476 14.1169C4.0121 14.1815 4.1048 14.2097 4.1573 14.1573C4.2097 14.1169 4.1976 14.0242 4.129 13.9476C4.0645 13.8831 3.9718 13.8548 3.9194 13.9073ZM3.4839 13.5806C3.4556 13.6331 3.496 13.6976 3.5766 13.7379C3.6411 13.7782 3.7218 13.7661 3.75 13.7097C3.7782 13.6573 3.7379 13.5927 3.6573 13.5524C3.5766 13.5282 3.5121 13.5403 3.4839 13.5806ZM4.7903 15.0161C4.7258 15.0685 4.75 15.1895 4.8427 15.2661C4.9355 15.3589 5.0524 15.371 5.1048 15.3065C5.1573 15.254 5.1331 15.1331 5.0524 15.0565C4.9637 14.9637 4.8427 14.9516 4.7903 15.0161ZM4.3306 14.4234C4.2661 14.4637 4.2661 14.5685 4.3306 14.6613C4.3952 14.754 4.504 14.7944 4.5565 14.754C4.621 14.7016 4.621 14.5968 4.5565 14.504C4.5 14.4113 4.3952 14.371 4.3306 14.4234Z" transform="translate(9 9)" id="Shape" fill="#0D0D0D" stroke="none" />
  </g>
</svg>