<?xml version="1.0" encoding="utf-8"?>
<svg width="29px" height="29px" viewbox="0 0 29 29" version="1.1" xmlns:xlink="http://www.w3.org/1999/xlink" xmlns="http://www.w3.org/2000/svg">
  <path d="M26.5 6.981C26.5 3.13143 23.3686 0 19.5192 0C16.8204 0 14.4016 1.57181 13.2501 3.91239C12.0984 1.57181 9.6794 0 6.9808 0C3.13142 0 0 3.13143 0 6.981C0 9.6777 1.51822 12.0558 3.8414 13.2156C1.51822 14.3753 0 16.7534 0 19.4502C0 23.2997 3.13142 26.4312 6.9808 26.4312C9.6794 26.4312 12.0984 24.8593 13.2501 22.5188C14.4016 24.8593 16.8204 26.4312 19.5192 26.4312C23.3686 26.4312 26.5 23.2997 26.5 19.4502C26.5 16.7534 24.9818 14.3753 22.6586 13.2156C24.9818 12.0558 26.5 9.6777 26.5 6.981Z" transform="translate(1 1)" id="Shape" fill="none" fill-rule="evenodd" stroke="#3DB370" stroke-width="2" />
</svg>