<?xml version="1.0" encoding="utf-8"?>
<svg width="152px" height="27px" viewbox="0 0 152 27" version="1.1" xmlns:xlink="http://www.w3.org/1999/xlink" xmlns="http://www.w3.org/2000/svg">
  <path d="M3.43 4.6199L3.43 11.8649L12.04 11.8649C12.53 11.8649 12.9267 12.0166 13.23 12.3199C13.5567 12.6232 13.72 13.0199 13.72 13.5099C13.72 13.9299 13.5567 14.2916 13.23 14.5949C12.9267 14.8982 12.53 15.0499 12.04 15.0499L3.43 15.0499L3.43 24.2199C3.43 24.6866 3.255 25.0832 2.905 25.4099C2.5783 25.7366 2.1817 25.8999 1.715 25.8999C1.225 25.8999 0.8167 25.7366 0.49 25.4099C0.1633 25.0832 0 24.6866 0 24.2199L0 3.0799C0 2.61323 0.1633 2.21656 0.49 1.8899C0.8167 1.56323 1.2133 1.3999 1.68 1.3999L13.615 1.3999C14.105 1.3999 14.5017 1.55157 14.805 1.8549C15.1317 2.15823 15.295 2.5549 15.295 3.0449C15.295 3.4649 15.1317 3.83823 14.805 4.1649C14.4783 4.46823 14.0817 4.6199 13.615 4.6199L3.43 4.6199ZM28.1632 7.13989C28.7699 7.13989 29.2949 7.30319 29.7382 7.62989C30.1816 7.93319 30.4032 8.31819 30.4032 8.78489C30.4032 9.34489 30.2516 9.77659 29.9482 10.0799C29.6682 10.3599 29.3182 10.4999 28.8982 10.4999C28.6882 10.4999 28.3732 10.4299 27.9532 10.2899C27.4632 10.1266 27.0782 10.0449 26.7982 10.0449C26.0749 10.0449 25.3632 10.3016 24.6632 10.8149C23.9866 11.3049 23.4266 11.9932 22.9832 12.8799C22.5632 13.7432 22.3532 14.7116 22.3532 15.7849L22.3532 24.2199C22.3532 24.6866 22.1899 25.0832 21.8632 25.4099C21.5599 25.7366 21.1632 25.8999 20.6732 25.8999C20.1832 25.8999 19.7866 25.7482 19.4832 25.4449C19.1799 25.1182 19.0282 24.7099 19.0282 24.2199L19.0282 9.23989C19.0282 8.77319 19.1799 8.37659 19.4832 8.04989C19.8099 7.72319 20.2066 7.55989 20.6732 7.55989C21.1632 7.55989 21.5599 7.72319 21.8632 8.04989C22.1899 8.37659 22.3532 8.77319 22.3532 9.23989L22.3532 11.0249C22.8666 9.88159 23.6366 8.95989 24.6632 8.25989C25.6899 7.53659 26.8566 7.16319 28.1632 7.13989ZM48.8001 16.0299C48.7768 16.4499 48.6018 16.8116 48.2751 17.1149C47.9485 17.3949 47.5635 17.5349 47.1201 17.5349L34.8001 17.5349C34.9635 19.2382 35.6051 20.6032 36.7251 21.6299C37.8685 22.6566 39.2568 23.1699 40.8901 23.1699C42.0101 23.1699 42.9201 23.0066 43.6201 22.6799C44.3201 22.3532 44.9385 21.9332 45.4751 21.4199C45.8251 21.2099 46.1635 21.1049 46.4901 21.1049C46.8868 21.1049 47.2135 21.2449 47.4701 21.5249C47.7501 21.8049 47.8901 22.1316 47.8901 22.5049C47.8901 22.9949 47.6568 23.4382 47.1901 23.8349C46.5135 24.5116 45.6151 25.0832 44.4951 25.5499C43.3751 26.0166 42.2318 26.2499 41.0651 26.2499C39.1751 26.2499 37.5068 25.8532 36.0601 25.0599C34.6368 24.2666 33.5285 23.1582 32.7351 21.7349C31.9651 20.3116 31.5801 18.7016 31.5801 16.9049C31.5801 14.9449 31.9768 13.2299 32.7701 11.7599C33.5868 10.2666 34.6485 9.12319 35.9551 8.32989C37.2851 7.53659 38.7085 7.13989 40.2251 7.13989C41.7185 7.13989 43.1185 7.52489 44.4251 8.29489C45.7318 9.06489 46.7818 10.1266 47.5751 11.4799C48.3685 12.8332 48.7768 14.3499 48.8001 16.0299ZM40.2251 10.22C38.9185 10.22 37.7868 10.5933 36.8301 11.34C35.8735 12.0633 35.2435 13.195 34.9401 14.735L45.2651 14.735L45.2651 14.455C45.1485 13.2183 44.5885 12.2033 43.5851 11.41C42.6051 10.6167 41.4851 10.22 40.2251 10.22ZM68.761 16.0299C68.738 16.4499 68.563 16.8116 68.236 17.1149C67.909 17.3949 67.524 17.5349 67.081 17.5349L54.7611 17.5349C54.9244 19.2382 55.5661 20.6032 56.686 21.6299C57.829 22.6566 59.218 23.1699 60.851 23.1699C61.971 23.1699 62.881 23.0066 63.581 22.6799C64.281 22.3532 64.899 21.9332 65.436 21.4199C65.786 21.2099 66.124 21.1049 66.451 21.1049C66.848 21.1049 67.174 21.2449 67.431 21.5249C67.711 21.8049 67.851 22.1316 67.851 22.5049C67.851 22.9949 67.618 23.4382 67.151 23.8349C66.474 24.5116 65.576 25.0832 64.456 25.5499C63.336 26.0166 62.193 26.2499 61.026 26.2499C59.136 26.2499 57.468 25.8532 56.0211 25.0599C54.5977 24.2666 53.4894 23.1582 52.6961 21.7349C51.9261 20.3116 51.5411 18.7016 51.5411 16.9049C51.5411 14.9449 51.9377 13.2299 52.7311 11.7599C53.5477 10.2666 54.6094 9.12319 55.9161 8.32989C57.246 7.53659 58.669 7.13989 60.186 7.13989C61.679 7.13989 63.079 7.52489 64.386 8.29489C65.693 9.06489 66.743 10.1266 67.536 11.4799C68.329 12.8332 68.738 14.3499 68.761 16.0299ZM60.186 10.22C58.879 10.22 57.748 10.5933 56.791 11.34C55.8344 12.0633 55.2044 13.195 54.9011 14.735L65.226 14.735L65.226 14.455C65.109 13.2183 64.549 12.2033 63.546 11.41C62.566 10.6167 61.446 10.22 60.186 10.22ZM81.757 7.245C85.864 7.245 87.917 9.7883 87.917 14.875L87.917 24.22C87.917 24.6867 87.754 25.0833 87.427 25.41C87.124 25.7367 86.727 25.9 86.237 25.9C85.77 25.9 85.374 25.7367 85.047 25.41C84.744 25.0833 84.592 24.6867 84.592 24.22L84.592 14.875C84.592 11.8417 83.309 10.325 80.742 10.325C79.365 10.325 78.222 10.7683 77.312 11.655C76.402 12.5183 75.947 13.5917 75.947 14.875L75.947 24.22C75.947 24.6867 75.784 25.0833 75.457 25.41C75.154 25.7367 74.757 25.9 74.267 25.9C73.777 25.9 73.38 25.7483 73.077 25.445C72.774 25.1183 72.622 24.71 72.622 24.22L72.622 1.68C72.622 1.21333 72.774 0.81667 73.077 0.49C73.404 0.16333 73.8 0 74.267 0C74.757 0 75.154 0.16333 75.457 0.49C75.784 0.81667 75.947 1.21333 75.947 1.68L75.947 10.535C76.53 9.625 77.347 8.855 78.397 8.225C79.447 7.5717 80.567 7.245 81.757 7.245ZM107.766 7.31489C108.256 7.31489 108.652 7.47819 108.956 7.80489C109.282 8.10819 109.446 8.51659 109.446 9.02989L109.446 24.2199C109.446 24.6866 109.282 25.0832 108.956 25.4099C108.652 25.7366 108.256 25.8999 107.766 25.8999C107.276 25.8999 106.879 25.7482 106.576 25.4449C106.272 25.1182 106.121 24.7099 106.121 24.2199L106.121 23.3099C105.514 24.1266 104.686 24.8266 103.636 25.4099C102.586 25.9699 101.454 26.2499 100.241 26.2499C98.654 26.2499 97.207 25.8416 95.901 25.0249C94.617 24.2082 93.602 23.0766 92.856 21.6299C92.132 20.1599 91.771 18.5149 91.771 16.6949C91.771 14.8749 92.132 13.2416 92.856 11.7949C93.602 10.3249 94.617 9.18159 95.901 8.36489C97.184 7.54819 98.596 7.13989 100.136 7.13989C101.372 7.13989 102.516 7.39659 103.566 7.90989C104.639 8.42319 105.491 9.07659 106.121 9.86989L106.121 9.02989C106.121 8.53989 106.272 8.13159 106.576 7.80489C106.879 7.47819 107.276 7.31489 107.766 7.31489ZM100.626 23.17C101.722 23.17 102.691 22.89 103.531 22.33C104.394 21.77 105.059 21 105.526 20.02C106.016 19.04 106.261 17.9317 106.261 16.695C106.261 15.4817 106.016 14.385 105.526 13.405C105.059 12.425 104.394 11.655 103.531 11.095C102.691 10.5117 101.722 10.22 100.626 10.22C99.529 10.22 98.549 10.5 97.686 11.06C96.846 11.62 96.181 12.39 95.691 13.37C95.224 14.35 94.991 15.4583 94.991 16.695C94.991 17.9317 95.224 19.04 95.691 20.02C96.181 21 96.846 21.77 97.686 22.33C98.549 22.89 99.529 23.17 100.626 23.17ZM123.735 7.13989C127.935 7.13989 130.035 9.65989 130.035 14.6999L130.035 24.2199C130.035 24.6866 129.871 25.0832 129.545 25.4099C129.241 25.7366 128.845 25.8999 128.355 25.8999C127.888 25.8999 127.491 25.7366 127.165 25.4099C126.861 25.0832 126.71 24.6866 126.71 24.2199L126.71 14.7349C126.71 13.3582 126.395 12.2616 125.765 11.4449C125.135 10.6282 124.108 10.2199 122.685 10.2199C121.751 10.2199 120.9 10.4299 120.13 10.8499C119.383 11.2466 118.788 11.7949 118.345 12.4949C117.925 13.1716 117.715 13.9182 117.715 14.7349L117.715 24.2199C117.715 24.6866 117.551 25.0832 117.225 25.4099C116.921 25.7366 116.525 25.8999 116.035 25.8999C115.545 25.8999 115.148 25.7482 114.845 25.4449C114.541 25.1182 114.39 24.7099 114.39 24.2199L114.39 9.23989C114.39 8.77319 114.541 8.37659 114.845 8.04989C115.171 7.72319 115.568 7.55989 116.035 7.55989C116.525 7.55989 116.921 7.72319 117.225 8.04989C117.551 8.37659 117.715 8.77319 117.715 9.23989L117.715 10.4649C118.321 9.53159 119.161 8.74989 120.235 8.11989C121.331 7.46659 122.498 7.13989 123.735 7.13989ZM149.875 0C150.365 0 150.762 0.16333 151.065 0.49C151.392 0.79333 151.555 1.19 151.555 1.68L151.555 24.22C151.555 24.6867 151.392 25.0833 151.065 25.41C150.762 25.7367 150.365 25.9 149.875 25.9C149.385 25.9 148.988 25.7483 148.685 25.445C148.382 25.1183 148.23 24.71 148.23 24.22L148.23 23.24C147.647 24.08 146.818 24.7917 145.745 25.375C144.695 25.9583 143.563 26.25 142.35 26.25C140.763 26.25 139.328 25.8417 138.045 25.025C136.762 24.2083 135.747 23.0767 135 21.63C134.253 20.16 133.88 18.515 133.88 16.695C133.88 14.875 134.242 13.2417 134.965 11.795C135.712 10.325 136.727 9.1817 138.01 8.365C139.293 7.5483 140.705 7.14 142.245 7.14C143.482 7.14 144.625 7.3967 145.675 7.91C146.725 8.4233 147.577 9.0883 148.23 9.905L148.23 1.68C148.23 1.19 148.382 0.79333 148.685 0.49C148.988 0.16333 149.385 0 149.875 0ZM142.735 23.17C143.832 23.17 144.8 22.89 145.64 22.33C146.503 21.77 147.168 21 147.635 20.02C148.125 19.04 148.37 17.9317 148.37 16.695C148.37 15.4817 148.125 14.385 147.635 13.405C147.168 12.4017 146.503 11.62 145.64 11.06C144.8 10.5 143.832 10.22 142.735 10.22C141.638 10.22 140.658 10.5 139.795 11.06C138.955 11.62 138.29 12.4017 137.8 13.405C137.333 14.385 137.1 15.4817 137.1 16.695C137.1 17.9317 137.333 19.04 137.8 20.02C138.29 21 138.955 21.77 139.795 22.33C140.658 22.89 141.638 23.17 142.735 23.17Z" id="Shape" fill="#FFFFFF" stroke="none" />
</svg>