<?xml version="1.0" encoding="utf-8"?>
<svg width="152px" height="27px" viewbox="0 0 152 27" version="1.1" xmlns:xlink="http://www.w3.org/1999/xlink" xmlns="http://www.w3.org/2000/svg">
  <path d="M3.43 4.62002L3.43 11.865L12.04 11.865C12.53 11.865 12.9267 12.0167 13.23 12.32C13.5567 12.6233 13.72 13.02 13.72 13.51C13.72 13.93 13.5567 14.2917 13.23 14.595C12.9267 14.8983 12.53 15.05 12.04 15.05L3.43 15.05L3.43 24.22C3.43 24.6867 3.255 25.0833 2.905 25.41C2.5783 25.7367 2.1817 25.9 1.715 25.9C1.225 25.9 0.8167 25.7367 0.49 25.41C0.1633 25.0833 0 24.6867 0 24.22L0 3.08002C0 2.61335 0.1633 2.21668 0.49 1.89002C0.8167 1.56335 1.2133 1.40002 1.68 1.40002L13.615 1.40002C14.105 1.40002 14.5017 1.55169 14.805 1.85502C15.1317 2.15835 15.295 2.55502 15.295 3.04502C15.295 3.46502 15.1317 3.83835 14.805 4.16502C14.4783 4.46835 14.0817 4.62002 13.615 4.62002L3.43 4.62002ZM28.1632 7.14001C28.7699 7.14001 29.2949 7.30331 29.7382 7.63001C30.1816 7.93331 30.4032 8.31831 30.4032 8.78502C30.4032 9.34501 30.2516 9.77671 29.9482 10.08C29.6682 10.36 29.3182 10.5 28.8982 10.5C28.6882 10.5 28.3732 10.43 27.9532 10.29C27.4632 10.1267 27.0782 10.045 26.7982 10.045C26.0749 10.045 25.3632 10.3017 24.6632 10.815C23.9866 11.305 23.4266 11.9933 22.9832 12.88C22.5632 13.7433 22.3532 14.7117 22.3532 15.785L22.3532 24.22C22.3532 24.6867 22.1899 25.0833 21.8632 25.41C21.5599 25.7367 21.1632 25.9 20.6732 25.9C20.1832 25.9 19.7866 25.7483 19.4832 25.445C19.1799 25.1183 19.0282 24.71 19.0282 24.22L19.0282 9.24002C19.0282 8.77331 19.1799 8.37671 19.4832 8.05001C19.8099 7.72331 20.2066 7.56001 20.6732 7.56001C21.1632 7.56001 21.5599 7.72331 21.8632 8.05001C22.1899 8.37671 22.3532 8.77331 22.3532 9.24002L22.3532 11.025C22.8666 9.88171 23.6366 8.96001 24.6632 8.26001C25.6899 7.53671 26.8566 7.16331 28.1632 7.14001ZM48.8001 16.03C48.7768 16.45 48.6018 16.8117 48.2751 17.115C47.9485 17.395 47.5635 17.535 47.1201 17.535L34.8001 17.535C34.9635 19.2383 35.6051 20.6033 36.7251 21.63C37.8685 22.6567 39.2568 23.17 40.8901 23.17C42.0101 23.17 42.9201 23.0067 43.6201 22.68C44.3201 22.3533 44.9385 21.9333 45.4751 21.42C45.8251 21.21 46.1635 21.105 46.4901 21.105C46.8868 21.105 47.2135 21.245 47.4701 21.525C47.7501 21.805 47.8901 22.1317 47.8901 22.505C47.8901 22.995 47.6568 23.4383 47.1901 23.835C46.5135 24.5117 45.6151 25.0833 44.4951 25.55C43.3751 26.0167 42.2318 26.25 41.0651 26.25C39.1751 26.25 37.5068 25.8533 36.0601 25.06C34.6368 24.2667 33.5285 23.1583 32.7351 21.735C31.9651 20.3117 31.5801 18.7017 31.5801 16.905C31.5801 14.945 31.9768 13.23 32.7701 11.76C33.5868 10.2667 34.6485 9.12331 35.9551 8.33002C37.2851 7.53671 38.7085 7.14001 40.2251 7.14001C41.7185 7.14001 43.1185 7.52501 44.4251 8.29501C45.7318 9.06501 46.7818 10.1267 47.5751 11.48C48.3685 12.8333 48.7768 14.35 48.8001 16.03ZM40.2251 10.22C38.9185 10.22 37.7868 10.5933 36.8301 11.34C35.8735 12.0633 35.2435 13.195 34.9401 14.735L45.2651 14.735L45.2651 14.455C45.1485 13.2183 44.5885 12.2033 43.5851 11.41C42.6051 10.6167 41.4851 10.22 40.2251 10.22ZM68.761 16.03C68.738 16.45 68.563 16.8117 68.236 17.115C67.909 17.395 67.524 17.535 67.081 17.535L54.7611 17.535C54.9244 19.2383 55.5661 20.6033 56.686 21.63C57.829 22.6567 59.218 23.17 60.851 23.17C61.971 23.17 62.881 23.0067 63.581 22.68C64.281 22.3533 64.899 21.9333 65.436 21.42C65.786 21.21 66.124 21.105 66.451 21.105C66.848 21.105 67.174 21.245 67.431 21.525C67.711 21.805 67.851 22.1317 67.851 22.505C67.851 22.995 67.618 23.4383 67.151 23.835C66.474 24.5117 65.576 25.0833 64.456 25.55C63.336 26.0167 62.193 26.25 61.026 26.25C59.136 26.25 57.468 25.8533 56.0211 25.06C54.5977 24.2667 53.4894 23.1583 52.6961 21.735C51.9261 20.3117 51.5411 18.7017 51.5411 16.905C51.5411 14.945 51.9377 13.23 52.7311 11.76C53.5477 10.2667 54.6094 9.12331 55.9161 8.33002C57.246 7.53671 58.669 7.14001 60.186 7.14001C61.679 7.14001 63.079 7.52501 64.386 8.29501C65.693 9.06501 66.743 10.1267 67.536 11.48C68.329 12.8333 68.738 14.35 68.761 16.03ZM60.186 10.22C58.879 10.22 57.748 10.5933 56.791 11.34C55.8344 12.0633 55.2044 13.195 54.9011 14.735L65.226 14.735L65.226 14.455C65.109 13.2183 64.549 12.2033 63.546 11.41C62.566 10.6167 61.446 10.22 60.186 10.22ZM81.757 7.245C85.864 7.245 87.917 9.7883 87.917 14.875L87.917 24.22C87.917 24.6867 87.754 25.0833 87.427 25.41C87.124 25.7367 86.727 25.9 86.237 25.9C85.77 25.9 85.374 25.7367 85.047 25.41C84.744 25.0833 84.592 24.6867 84.592 24.22L84.592 14.875C84.592 11.8417 83.309 10.325 80.742 10.325C79.365 10.325 78.222 10.7683 77.312 11.655C76.402 12.5183 75.947 13.5917 75.947 14.875L75.947 24.22C75.947 24.6867 75.784 25.0833 75.457 25.41C75.154 25.7367 74.757 25.9 74.267 25.9C73.777 25.9 73.38 25.7483 73.077 25.445C72.774 25.1183 72.622 24.71 72.622 24.22L72.622 1.68C72.622 1.21333 72.774 0.81667 73.077 0.49C73.404 0.16333 73.8 0 74.267 0C74.757 0 75.154 0.16333 75.457 0.49C75.784 0.81667 75.947 1.21333 75.947 1.68L75.947 10.535C76.53 9.625 77.347 8.855 78.397 8.225C79.447 7.5717 80.567 7.245 81.757 7.245ZM107.766 7.31501C108.256 7.31501 108.652 7.47831 108.956 7.80501C109.282 8.10831 109.446 8.51672 109.446 9.03001L109.446 24.22C109.446 24.6867 109.282 25.0833 108.956 25.41C108.652 25.7367 108.256 25.9 107.766 25.9C107.276 25.9 106.879 25.7483 106.576 25.445C106.272 25.1183 106.121 24.71 106.121 24.22L106.121 23.31C105.514 24.1267 104.686 24.8267 103.636 25.41C102.586 25.97 101.454 26.25 100.241 26.25C98.654 26.25 97.207 25.8417 95.901 25.025C94.617 24.2083 93.602 23.0767 92.856 21.63C92.132 20.16 91.771 18.515 91.771 16.695C91.771 14.875 92.132 13.2417 92.856 11.795C93.602 10.325 94.617 9.18172 95.901 8.36502C97.184 7.54831 98.596 7.14001 100.136 7.14001C101.372 7.14001 102.516 7.39671 103.566 7.91001C104.639 8.42332 105.491 9.07671 106.121 9.87002L106.121 9.03001C106.121 8.54001 106.272 8.13171 106.576 7.80501C106.879 7.47831 107.276 7.31501 107.766 7.31501ZM100.626 23.17C101.722 23.17 102.691 22.89 103.531 22.33C104.394 21.77 105.059 21 105.526 20.02C106.016 19.04 106.261 17.9317 106.261 16.695C106.261 15.4817 106.016 14.385 105.526 13.405C105.059 12.425 104.394 11.655 103.531 11.095C102.691 10.5117 101.722 10.22 100.626 10.22C99.529 10.22 98.549 10.5 97.686 11.06C96.846 11.62 96.181 12.39 95.691 13.37C95.224 14.35 94.991 15.4583 94.991 16.695C94.991 17.9317 95.224 19.04 95.691 20.02C96.181 21 96.846 21.77 97.686 22.33C98.549 22.89 99.529 23.17 100.626 23.17ZM123.735 7.14001C127.935 7.14001 130.035 9.66002 130.035 14.7L130.035 24.22C130.035 24.6867 129.871 25.0833 129.545 25.41C129.241 25.7367 128.845 25.9 128.355 25.9C127.888 25.9 127.491 25.7367 127.165 25.41C126.861 25.0833 126.71 24.6867 126.71 24.22L126.71 14.735C126.71 13.3583 126.395 12.2617 125.765 11.445C125.135 10.6283 124.108 10.22 122.685 10.22C121.751 10.22 120.9 10.43 120.13 10.85C119.383 11.2467 118.788 11.795 118.345 12.495C117.925 13.1717 117.715 13.9183 117.715 14.735L117.715 24.22C117.715 24.6867 117.551 25.0833 117.225 25.41C116.921 25.7367 116.525 25.9 116.035 25.9C115.545 25.9 115.148 25.7483 114.845 25.445C114.541 25.1183 114.39 24.71 114.39 24.22L114.39 9.24002C114.39 8.77331 114.541 8.37671 114.845 8.05001C115.171 7.72331 115.568 7.56001 116.035 7.56001C116.525 7.56001 116.921 7.72331 117.225 8.05001C117.551 8.37671 117.715 8.77331 117.715 9.24002L117.715 10.465C118.321 9.53171 119.161 8.75001 120.235 8.12001C121.331 7.46671 122.498 7.14001 123.735 7.14001ZM149.875 0C150.365 0 150.762 0.16333 151.065 0.49C151.392 0.79333 151.555 1.19 151.555 1.68L151.555 24.22C151.555 24.6867 151.392 25.0833 151.065 25.41C150.762 25.7367 150.365 25.9 149.875 25.9C149.385 25.9 148.988 25.7483 148.685 25.445C148.382 25.1183 148.23 24.71 148.23 24.22L148.23 23.24C147.647 24.08 146.818 24.7917 145.745 25.375C144.695 25.9583 143.563 26.25 142.35 26.25C140.763 26.25 139.328 25.8417 138.045 25.025C136.762 24.2083 135.747 23.0767 135 21.63C134.253 20.16 133.88 18.515 133.88 16.695C133.88 14.875 134.242 13.2417 134.965 11.795C135.712 10.325 136.727 9.1817 138.01 8.365C139.293 7.5483 140.705 7.14 142.245 7.14C143.482 7.14 144.625 7.3967 145.675 7.91C146.725 8.4233 147.577 9.0883 148.23 9.905L148.23 1.68C148.23 1.19 148.382 0.79333 148.685 0.49C148.988 0.16333 149.385 0 149.875 0ZM142.735 23.17C143.832 23.17 144.8 22.89 145.64 22.33C146.503 21.77 147.168 21 147.635 20.02C148.125 19.04 148.37 17.9317 148.37 16.695C148.37 15.4817 148.125 14.385 147.635 13.405C147.168 12.4017 146.503 11.62 145.64 11.06C144.8 10.5 143.832 10.22 142.735 10.22C141.638 10.22 140.658 10.5 139.795 11.06C138.955 11.62 138.29 12.4017 137.8 13.405C137.333 14.385 137.1 15.4817 137.1 16.695C137.1 17.9317 137.333 19.04 137.8 20.02C138.29 21 138.955 21.77 139.795 22.33C140.658 22.89 141.638 23.17 142.735 23.17Z" id="Shape" fill="#16133D" stroke="none" />
</svg>