<?xml version="1.0" encoding="utf-8"?>
<svg width="38px" height="38px" viewbox="0 0 38 38" version="1.1" xmlns:xlink="http://www.w3.org/1999/xlink" xmlns="http://www.w3.org/2000/svg">
  <g id="Group-15">
    <path d="M4.999 0L33.001 0Q33.1237 0 33.2463 0.00602151Q33.3689 0.012043 33.491 0.0240715Q33.6131 0.0361001 33.7345 0.0541066Q33.8559 0.0721132 33.9763 0.0960544Q34.0966 0.119996 34.2157 0.149814Q34.3347 0.179632 34.4521 0.215255Q34.5696 0.250879 34.6851 0.292221Q34.8007 0.333564 34.914 0.380526Q35.0274 0.427489 35.1383 0.479957Q35.2493 0.532426 35.3575 0.590276Q35.4657 0.648125 35.571 0.711215Q35.6763 0.774305 35.7783 0.842483Q35.8803 0.910662 35.9789 0.983765Q36.0775 1.05687 36.1723 1.13472Q36.2672 1.21257 36.3581 1.29499Q36.449 1.3774 36.5358 1.46417Q36.6226 1.55095 36.705 1.64188Q36.7874 1.73281 36.8653 1.82767Q36.9431 1.92253 37.0162 2.0211Q37.0893 2.11967 37.1575 2.2217Q37.2257 2.32374 37.2888 2.429Q37.3519 2.53426 37.4097 2.64249Q37.4676 2.75072 37.52 2.86165Q37.5725 2.97259 37.6195 3.08597Q37.6664 3.19934 37.7078 3.31489Q37.7491 3.43043 37.7847 3.54787Q37.8204 3.6653 37.8502 3.78434Q37.88 3.90338 37.9039 4.02374Q37.9279 4.1441 37.9459 4.26549Q37.9639 4.38688 37.9759 4.50901Q37.988 4.63114 37.994 4.75371Q38 4.87628 38 4.999L38 33.001Q38 33.1237 37.994 33.2463Q37.988 33.3689 37.9759 33.491Q37.9639 33.6131 37.9459 33.7345Q37.9279 33.8559 37.9039 33.9763Q37.88 34.0966 37.8502 34.2157Q37.8204 34.3347 37.7847 34.4521Q37.7491 34.5696 37.7078 34.6851Q37.6664 34.8007 37.6195 34.914Q37.5725 35.0274 37.52 35.1383Q37.4676 35.2493 37.4097 35.3575Q37.3519 35.4657 37.2888 35.571Q37.2257 35.6763 37.1575 35.7783Q37.0893 35.8803 37.0162 35.9789Q36.9431 36.0775 36.8653 36.1723Q36.7874 36.2672 36.705 36.3581Q36.6226 36.449 36.5358 36.5358Q36.449 36.6226 36.3581 36.705Q36.2672 36.7874 36.1723 36.8653Q36.0775 36.9431 35.9789 37.0162Q35.8803 37.0893 35.7783 37.1575Q35.6763 37.2257 35.571 37.2888Q35.4657 37.3519 35.3575 37.4097Q35.2493 37.4676 35.1383 37.52Q35.0274 37.5725 34.914 37.6195Q34.8007 37.6664 34.6851 37.7078Q34.5696 37.7491 34.4521 37.7847Q34.3347 37.8204 34.2157 37.8502Q34.0966 37.88 33.9763 37.9039Q33.8559 37.9279 33.7345 37.9459Q33.6131 37.9639 33.491 37.9759Q33.3689 37.988 33.2463 37.994Q33.1237 38 33.001 38L4.999 38Q4.87628 38 4.75371 37.994Q4.63114 37.988 4.50901 37.9759Q4.38688 37.9639 4.26549 37.9459Q4.1441 37.9279 4.02374 37.9039Q3.90338 37.88 3.78434 37.8502Q3.6653 37.8204 3.54787 37.7847Q3.43043 37.7491 3.31489 37.7078Q3.19934 37.6664 3.08597 37.6195Q2.97259 37.5725 2.86165 37.52Q2.75072 37.4676 2.64249 37.4097Q2.53426 37.3519 2.429 37.2888Q2.32374 37.2257 2.2217 37.1575Q2.11967 37.0893 2.0211 37.0162Q1.92253 36.9431 1.82767 36.8653Q1.73281 36.7874 1.64188 36.705Q1.55095 36.6226 1.46417 36.5358Q1.3774 36.449 1.29499 36.3581Q1.21257 36.2672 1.13472 36.1723Q1.05687 36.0775 0.983765 35.9789Q0.910662 35.8803 0.842483 35.7783Q0.774305 35.6763 0.711215 35.571Q0.648125 35.4657 0.590276 35.3575Q0.532426 35.2493 0.479957 35.1383Q0.427489 35.0274 0.380526 34.914Q0.333564 34.8007 0.292221 34.6851Q0.250879 34.5696 0.215255 34.4521Q0.179632 34.3347 0.149814 34.2157Q0.119996 34.0966 0.0960544 33.9763Q0.0721132 33.8559 0.0541066 33.7345Q0.0361001 33.6131 0.0240715 33.491Q0.012043 33.3689 0.00602151 33.2463Q0 33.1237 0 33.001L0 4.999Q0 4.87628 0.00602151 4.75371Q0.012043 4.63114 0.0240715 4.50901Q0.0361001 4.38688 0.0541066 4.26549Q0.0721132 4.1441 0.0960544 4.02374Q0.119996 3.90338 0.149814 3.78434Q0.179632 3.6653 0.215255 3.54787Q0.250879 3.43043 0.292221 3.31489Q0.333564 3.19934 0.380526 3.08597Q0.427489 2.97259 0.479957 2.86165Q0.532426 2.75072 0.590276 2.64249Q0.648125 2.53426 0.711215 2.429Q0.774305 2.32374 0.842483 2.2217Q0.910662 2.11967 0.983765 2.0211Q1.05687 1.92253 1.13472 1.82767Q1.21257 1.73281 1.29499 1.64188Q1.3774 1.55095 1.46417 1.46417Q1.55095 1.3774 1.64188 1.29499Q1.73281 1.21257 1.82767 1.13472Q1.92253 1.05687 2.0211 0.983765Q2.11967 0.910662 2.2217 0.842483Q2.32374 0.774305 2.429 0.711215Q2.53426 0.648125 2.64249 0.590276Q2.75072 0.532426 2.86165 0.479957Q2.97259 0.427489 3.08597 0.380526Q3.19934 0.333564 3.31489 0.292221Q3.43043 0.250879 3.54787 0.215255Q3.6653 0.179632 3.78434 0.149814Q3.90338 0.119996 4.02374 0.0960544Q4.1441 0.0721132 4.26549 0.0541066Q4.38688 0.0361001 4.50901 0.0240715Q4.63114 0.012043 4.75371 0.00602151Q4.87628 0 4.999 0Z" id="Rectangle" fill="#EFEEF3" stroke="none" />
    <path d="M17.9441 4.0482C17.9568 4.2259 17.9568 4.4036 17.9568 4.5812C17.9568 10 13.8325 16.2436 6.2944 16.2436C3.9721 16.2436 1.8147 15.571 0 14.4036C0.32996 14.4416 0.64719 14.4543 0.98984 14.4543C2.9061 14.4543 4.67 13.8071 6.0787 12.703C4.2766 12.665 2.7665 11.4848 2.2462 9.8604C2.5 9.8984 2.7538 9.9238 3.0203 9.9238C3.3883 9.9238 3.7564 9.873 4.099 9.7843C2.2208 9.4035 0.81215 7.7538 0.81215 5.7614L0.81215 5.7107C1.3578 6.0152 1.9924 6.2056 2.6649 6.2309C1.5609 5.4949 0.83754 4.2386 0.83754 2.8172C0.83754 2.0558 1.0405 1.3579 1.3959 0.7487C3.4137 3.236 6.4467 4.8604 9.8477 5.038C9.7842 4.7335 9.7461 4.4163 9.7461 4.099C9.7461 1.8401 11.5736 0 13.8451 0C15.0253 0 16.0913 0.4949 16.84 1.2944C17.7664 1.1168 18.6547 0.7741 19.4416 0.3046C19.137 1.2564 18.4898 2.0559 17.6395 2.5634C18.4644 2.4746 19.2639 2.2462 19.9999 1.9289C19.4416 2.7411 18.7436 3.4644 17.9441 4.0482Z" transform="translate(9 11)" id="Path" fill="#0D0D0D" stroke="none" />
  </g>
</svg>